<svg width="800" height="900" viewBox="0 0 800 900" xmlns="http://www.w3.org/2000/svg">
  <rect width="800" height="900" fill="#f7f4ed"/>
  <rect x="70" y="70" width="660" height="760" rx="38" fill="#ffffff" stroke="#e4e2dd" stroke-width="4"/>
  <circle cx="400" cy="330" r="180" fill="#1f2937"/>
  <circle cx="400" cy="310" r="126" fill="#f2c89b"/>
  <path d="M258 620c24-116 114-170 142-170 95 0 142 74 142 170" fill="#0f172a"/>
  <path d="M300 315c18-92 70-140 100-140s82 48 100 140" fill="#0f172a"/>
  <circle cx="345" cy="300" r="12" fill="#1f2937"/>
  <circle cx="455" cy="300" r="12" fill="#1f2937"/>
  <path d="M352 380c26 24 70 24 96 0" stroke="#8b5e3c" stroke-width="10" stroke-linecap="round"/>
  <circle cx="400" cy="740" r="72" fill="#2563eb" opacity="0.16"/>
  <text x="400" y="760" text-anchor="middle" font-family="Arial, sans-serif" font-size="44" font-weight="700" fill="#111827">Paramjeet</text>
</svg>
